<mxfile host="app.diagrams.net" agent="Mozilla/5.0 (Windows NT 10.0; Win64; x64) AppleWebKit/537.36 (KHTML, like Gecko) Chrome/130.0.0.0 YaBrowser/24.12.0.0 Safari/537.36" version="26.0.14">
  <diagram name="Страница — 1" id="fVg9mppa9CZMBE942i3N">
    <mxGraphModel dx="1436" dy="878" grid="1" gridSize="10" guides="1" tooltips="1" connect="1" arrows="1" fold="1" page="1" pageScale="1" pageWidth="827" pageHeight="1169" math="0" shadow="0">
      <root>
        <mxCell id="0" />
        <mxCell id="1" parent="0" />
        <mxCell id="kpQuk6wI5b8qd4fek2up-1" value="&lt;p style=&quot;margin:0px;margin-top:4px;text-align:center;&quot;&gt;&lt;i&gt;Администратор - родитель&lt;/i&gt;&lt;/p&gt;&lt;p&gt;&lt;/p&gt;&lt;hr size=&quot;1&quot; style=&quot;border-style:solid;&quot;&gt;&lt;p style=&quot;margin:0px;margin-left:4px;&quot;&gt;Имя: string&lt;/p&gt;" style="verticalAlign=top;align=left;overflow=fill;html=1;whiteSpace=wrap;labelBorderColor=light-dark(#000000,#EDEDED);" vertex="1" parent="1">
          <mxGeometry x="80" y="158" width="200" height="122" as="geometry" />
        </mxCell>
        <mxCell id="kpQuk6wI5b8qd4fek2up-2" value="&lt;p style=&quot;margin:0px;margin-top:4px;text-align:center;&quot;&gt;&lt;i&gt;Рекламодатель - родитель&lt;/i&gt;&lt;/p&gt;&lt;p&gt;&lt;/p&gt;&lt;hr size=&quot;1&quot; style=&quot;border-style:solid;&quot;&gt;&lt;p style=&quot;margin:0px;margin-left:4px;&quot;&gt;Имя: string&lt;/p&gt;" style="verticalAlign=top;align=left;overflow=fill;html=1;whiteSpace=wrap;" vertex="1" parent="1">
          <mxGeometry x="440" y="158" width="200" height="121" as="geometry" />
        </mxCell>
        <mxCell id="kpQuk6wI5b8qd4fek2up-3" value="&lt;p style=&quot;margin:0px;margin-top:4px;text-align:center;&quot;&gt;&lt;i&gt;Читатель - родитель&lt;/i&gt;&lt;/p&gt;&lt;p&gt;&lt;/p&gt;&lt;hr size=&quot;1&quot; style=&quot;border-style:solid;&quot;&gt;&lt;p style=&quot;margin:0px;margin-left:4px;&quot;&gt;Имя: string&lt;/p&gt;" style="verticalAlign=top;align=left;overflow=fill;html=1;whiteSpace=wrap;" vertex="1" parent="1">
          <mxGeometry x="800" y="158" width="200" height="121" as="geometry" />
        </mxCell>
        <mxCell id="kpQuk6wI5b8qd4fek2up-4" value="" style="endArrow=ERmandOne;startArrow=ERmandOne;html=1;rounded=0;startFill=0;endFill=0;exitX=1;exitY=0.5;exitDx=0;exitDy=0;entryX=0;entryY=0.5;entryDx=0;entryDy=0;strokeColor=light-dark(#000000,#EDEDED);" edge="1" parent="1" source="kpQuk6wI5b8qd4fek2up-1" target="kpQuk6wI5b8qd4fek2up-2">
          <mxGeometry width="50" height="50" relative="1" as="geometry">
            <mxPoint x="420" y="440" as="sourcePoint" />
            <mxPoint x="470" y="390" as="targetPoint" />
          </mxGeometry>
        </mxCell>
        <mxCell id="kpQuk6wI5b8qd4fek2up-5" value="1" style="edgeLabel;html=1;align=center;verticalAlign=middle;resizable=0;points=[];" vertex="1" connectable="0" parent="kpQuk6wI5b8qd4fek2up-4">
          <mxGeometry x="-0.7841" y="-3" relative="1" as="geometry">
            <mxPoint y="-3" as="offset" />
          </mxGeometry>
        </mxCell>
        <mxCell id="kpQuk6wI5b8qd4fek2up-6" value="1" style="edgeLabel;html=1;align=center;verticalAlign=middle;resizable=0;points=[];" vertex="1" connectable="0" parent="kpQuk6wI5b8qd4fek2up-4">
          <mxGeometry x="0.8068" y="1" relative="1" as="geometry">
            <mxPoint y="1" as="offset" />
          </mxGeometry>
        </mxCell>
        <mxCell id="kpQuk6wI5b8qd4fek2up-7" value="Администрирование" style="edgeLabel;html=1;align=center;verticalAlign=middle;resizable=0;points=[];" vertex="1" connectable="0" parent="kpQuk6wI5b8qd4fek2up-4">
          <mxGeometry x="-0.2159" y="1" relative="1" as="geometry">
            <mxPoint x="19" as="offset" />
          </mxGeometry>
        </mxCell>
        <mxCell id="kpQuk6wI5b8qd4fek2up-8" value="" style="endArrow=ERmandOne;startArrow=ERmandOne;html=1;rounded=0;exitX=1;exitY=0.5;exitDx=0;exitDy=0;entryX=0;entryY=0.5;entryDx=0;entryDy=0;startFill=0;endFill=0;strokeColor=default;" edge="1" parent="1" source="kpQuk6wI5b8qd4fek2up-2" target="kpQuk6wI5b8qd4fek2up-3">
          <mxGeometry width="50" height="50" relative="1" as="geometry">
            <mxPoint x="690" y="240" as="sourcePoint" />
            <mxPoint x="740" y="190" as="targetPoint" />
          </mxGeometry>
        </mxCell>
        <mxCell id="kpQuk6wI5b8qd4fek2up-9" value="1" style="edgeLabel;html=1;align=center;verticalAlign=middle;resizable=0;points=[];" vertex="1" connectable="0" parent="kpQuk6wI5b8qd4fek2up-8">
          <mxGeometry x="-0.8068" relative="1" as="geometry">
            <mxPoint as="offset" />
          </mxGeometry>
        </mxCell>
        <mxCell id="kpQuk6wI5b8qd4fek2up-10" value="N" style="edgeLabel;html=1;align=center;verticalAlign=middle;resizable=0;points=[];" vertex="1" connectable="0" parent="kpQuk6wI5b8qd4fek2up-8">
          <mxGeometry x="0.7614" relative="1" as="geometry">
            <mxPoint as="offset" />
          </mxGeometry>
        </mxCell>
        <mxCell id="kpQuk6wI5b8qd4fek2up-11" value="Привлекает" style="edgeLabel;html=1;align=center;verticalAlign=middle;resizable=0;points=[];" vertex="1" connectable="0" parent="kpQuk6wI5b8qd4fek2up-8">
          <mxGeometry x="-0.2727" y="-1" relative="1" as="geometry">
            <mxPoint x="24" y="-2" as="offset" />
          </mxGeometry>
        </mxCell>
        <mxCell id="kpQuk6wI5b8qd4fek2up-12" value="&lt;p style=&quot;margin:0px;margin-top:4px;text-align:center;&quot;&gt;&lt;i&gt;Сотрудник - родитель&lt;/i&gt;&lt;/p&gt;&lt;p&gt;&lt;/p&gt;&lt;hr size=&quot;1&quot; style=&quot;border-style:solid;&quot;&gt;&lt;p style=&quot;margin:0px;margin-left:4px;&quot;&gt;Имя: string&lt;/p&gt;" style="verticalAlign=top;align=left;overflow=fill;html=1;whiteSpace=wrap;" vertex="1" parent="1">
          <mxGeometry x="440" y="399" width="200" height="121" as="geometry" />
        </mxCell>
        <mxCell id="kpQuk6wI5b8qd4fek2up-13" value="" style="endArrow=ERmandOne;startArrow=ERmandOne;html=1;rounded=0;exitX=0.5;exitY=0;exitDx=0;exitDy=0;startFill=0;endFill=0;strokeColor=default;" edge="1" parent="1" source="kpQuk6wI5b8qd4fek2up-12">
          <mxGeometry width="50" height="50" relative="1" as="geometry">
            <mxPoint x="490" y="330" as="sourcePoint" />
            <mxPoint x="540" y="280" as="targetPoint" />
          </mxGeometry>
        </mxCell>
        <mxCell id="kpQuk6wI5b8qd4fek2up-14" value="1" style="edgeLabel;html=1;align=center;verticalAlign=middle;resizable=0;points=[];" vertex="1" connectable="0" parent="kpQuk6wI5b8qd4fek2up-13">
          <mxGeometry x="0.7678" y="1" relative="1" as="geometry">
            <mxPoint y="4" as="offset" />
          </mxGeometry>
        </mxCell>
        <mxCell id="kpQuk6wI5b8qd4fek2up-15" value="N" style="edgeLabel;html=1;align=center;verticalAlign=middle;resizable=0;points=[];" vertex="1" connectable="0" parent="kpQuk6wI5b8qd4fek2up-13">
          <mxGeometry x="-0.7448" relative="1" as="geometry">
            <mxPoint as="offset" />
          </mxGeometry>
        </mxCell>
        <mxCell id="kpQuk6wI5b8qd4fek2up-16" value="Заказывает&lt;div&gt;книги&lt;/div&gt;" style="edgeLabel;html=1;align=center;verticalAlign=middle;resizable=0;points=[];rotation=90;" vertex="1" connectable="0" parent="kpQuk6wI5b8qd4fek2up-13">
          <mxGeometry x="0.4775" relative="1" as="geometry">
            <mxPoint y="29" as="offset" />
          </mxGeometry>
        </mxCell>
        <mxCell id="kpQuk6wI5b8qd4fek2up-17" value="&lt;p style=&quot;margin:0px;margin-top:4px;text-align:center;&quot;&gt;&lt;i&gt;Библиотекарь - родитель&lt;/i&gt;&lt;/p&gt;&lt;p&gt;&lt;/p&gt;&lt;hr size=&quot;1&quot; style=&quot;border-style:solid;&quot;&gt;&lt;p style=&quot;margin:0px;margin-left:4px;&quot;&gt;Имя: string&lt;/p&gt;" style="verticalAlign=top;align=left;overflow=fill;html=1;whiteSpace=wrap;" vertex="1" parent="1">
          <mxGeometry x="800" y="399" width="200" height="121" as="geometry" />
        </mxCell>
        <mxCell id="kpQuk6wI5b8qd4fek2up-18" value="" style="endArrow=ERmandOne;startArrow=ERmandOne;html=1;rounded=0;exitX=1;exitY=0.5;exitDx=0;exitDy=0;entryX=0;entryY=0.5;entryDx=0;entryDy=0;startFill=0;endFill=0;strokeColor=default;" edge="1" parent="1" source="kpQuk6wI5b8qd4fek2up-12" target="kpQuk6wI5b8qd4fek2up-17">
          <mxGeometry width="50" height="50" relative="1" as="geometry">
            <mxPoint x="680" y="460" as="sourcePoint" />
            <mxPoint x="730" y="410" as="targetPoint" />
          </mxGeometry>
        </mxCell>
        <mxCell id="kpQuk6wI5b8qd4fek2up-19" value="N" style="edgeLabel;html=1;align=center;verticalAlign=middle;resizable=0;points=[];" vertex="1" connectable="0" parent="kpQuk6wI5b8qd4fek2up-18">
          <mxGeometry x="-0.7614" y="-1" relative="1" as="geometry">
            <mxPoint as="offset" />
          </mxGeometry>
        </mxCell>
        <mxCell id="kpQuk6wI5b8qd4fek2up-20" value="N" style="edgeLabel;html=1;align=center;verticalAlign=middle;resizable=0;points=[];" vertex="1" connectable="0" parent="kpQuk6wI5b8qd4fek2up-18">
          <mxGeometry x="0.7727" y="-1" relative="1" as="geometry">
            <mxPoint as="offset" />
          </mxGeometry>
        </mxCell>
        <mxCell id="kpQuk6wI5b8qd4fek2up-21" value="Раскладывает&lt;div&gt;книги&lt;/div&gt;" style="edgeLabel;html=1;align=center;verticalAlign=middle;resizable=0;points=[];" vertex="1" connectable="0" parent="kpQuk6wI5b8qd4fek2up-18">
          <mxGeometry x="-0.4432" y="2" relative="1" as="geometry">
            <mxPoint x="34" y="2" as="offset" />
          </mxGeometry>
        </mxCell>
        <mxCell id="kpQuk6wI5b8qd4fek2up-22" value="" style="endArrow=ERmandOne;startArrow=ERmandOne;html=1;rounded=0;exitX=0.5;exitY=0;exitDx=0;exitDy=0;startFill=0;endFill=0;strokeColor=default;" edge="1" parent="1" source="kpQuk6wI5b8qd4fek2up-17">
          <mxGeometry width="50" height="50" relative="1" as="geometry">
            <mxPoint x="850" y="330" as="sourcePoint" />
            <mxPoint x="900" y="280" as="targetPoint" />
          </mxGeometry>
        </mxCell>
        <mxCell id="kpQuk6wI5b8qd4fek2up-23" value="N" style="edgeLabel;html=1;align=center;verticalAlign=middle;resizable=0;points=[];" vertex="1" connectable="0" parent="kpQuk6wI5b8qd4fek2up-22">
          <mxGeometry x="0.7066" y="-1" relative="1" as="geometry">
            <mxPoint x="-1" y="2" as="offset" />
          </mxGeometry>
        </mxCell>
        <mxCell id="kpQuk6wI5b8qd4fek2up-24" value="N" style="edgeLabel;html=1;align=center;verticalAlign=middle;resizable=0;points=[];" vertex="1" connectable="0" parent="kpQuk6wI5b8qd4fek2up-22">
          <mxGeometry x="-0.699" y="1" relative="1" as="geometry">
            <mxPoint x="1" as="offset" />
          </mxGeometry>
        </mxCell>
        <mxCell id="kpQuk6wI5b8qd4fek2up-25" value="Выдача&lt;div&gt;книги&lt;/div&gt;" style="edgeLabel;html=1;align=center;verticalAlign=middle;resizable=0;points=[];rotation=90;" vertex="1" connectable="0" parent="kpQuk6wI5b8qd4fek2up-22">
          <mxGeometry x="0.0191" y="-1" relative="1" as="geometry">
            <mxPoint x="2" y="-1" as="offset" />
          </mxGeometry>
        </mxCell>
        <mxCell id="kpQuk6wI5b8qd4fek2up-31" value="Администратор - потомок" style="rounded=1;whiteSpace=wrap;html=1;" vertex="1" parent="1">
          <mxGeometry x="80" y="320" width="200" height="30" as="geometry" />
        </mxCell>
        <mxCell id="kpQuk6wI5b8qd4fek2up-32" value="&lt;span style=&quot;background-color: transparent; color: light-dark(rgb(0, 0, 0), rgb(255, 255, 255));&quot;&gt;ИД: int&lt;/span&gt;&lt;br&gt;&lt;span style=&quot;background-color: transparent; color: light-dark(rgb(0, 0, 0), rgb(255, 255, 255));&quot;&gt;Логин: int&lt;/span&gt;&lt;br&gt;&lt;span style=&quot;background-color: transparent; color: light-dark(rgb(0, 0, 0), rgb(255, 255, 255));&quot;&gt;Пароль: int&lt;/span&gt;" style="rounded=1;whiteSpace=wrap;html=1;align=left;" vertex="1" parent="1">
          <mxGeometry x="80" y="350" width="200" height="60" as="geometry" />
        </mxCell>
        <mxCell id="kpQuk6wI5b8qd4fek2up-33" value="" style="endArrow=none;dashed=1;html=1;rounded=0;exitX=0.5;exitY=0;exitDx=0;exitDy=0;" edge="1" parent="1" source="kpQuk6wI5b8qd4fek2up-31">
          <mxGeometry width="50" height="50" relative="1" as="geometry">
            <mxPoint x="130" y="330" as="sourcePoint" />
            <mxPoint x="180" y="280" as="targetPoint" />
          </mxGeometry>
        </mxCell>
        <mxCell id="kpQuk6wI5b8qd4fek2up-37" value="Сотрудник - потомок" style="rounded=1;whiteSpace=wrap;html=1;" vertex="1" parent="1">
          <mxGeometry x="440" y="560" width="200" height="30" as="geometry" />
        </mxCell>
        <mxCell id="kpQuk6wI5b8qd4fek2up-38" value="&lt;span style=&quot;background-color: transparent; color: light-dark(rgb(0, 0, 0), rgb(255, 255, 255));&quot;&gt;ИД: int&lt;/span&gt;&lt;br&gt;&lt;span style=&quot;background-color: transparent; color: light-dark(rgb(0, 0, 0), rgb(255, 255, 255));&quot;&gt;Логин: int&lt;/span&gt;&lt;br&gt;&lt;span style=&quot;background-color: transparent; color: light-dark(rgb(0, 0, 0), rgb(255, 255, 255));&quot;&gt;Пароль: int&lt;/span&gt;" style="rounded=1;whiteSpace=wrap;html=1;align=left;" vertex="1" parent="1">
          <mxGeometry x="440" y="590" width="200" height="60" as="geometry" />
        </mxCell>
        <mxCell id="kpQuk6wI5b8qd4fek2up-39" value="" style="endArrow=none;dashed=1;html=1;rounded=0;exitX=0.5;exitY=0;exitDx=0;exitDy=0;" edge="1" parent="1">
          <mxGeometry width="50" height="50" relative="1" as="geometry">
            <mxPoint x="539.5" y="560" as="sourcePoint" />
            <mxPoint x="539.5" y="520" as="targetPoint" />
          </mxGeometry>
        </mxCell>
        <mxCell id="kpQuk6wI5b8qd4fek2up-41" value="Библиотекарь - потомок" style="rounded=1;whiteSpace=wrap;html=1;" vertex="1" parent="1">
          <mxGeometry x="800" y="560" width="200" height="30" as="geometry" />
        </mxCell>
        <mxCell id="kpQuk6wI5b8qd4fek2up-42" value="&lt;span style=&quot;background-color: transparent; color: light-dark(rgb(0, 0, 0), rgb(255, 255, 255));&quot;&gt;ИД: int&lt;/span&gt;&lt;br&gt;&lt;span style=&quot;background-color: transparent; color: light-dark(rgb(0, 0, 0), rgb(255, 255, 255));&quot;&gt;Логин: int&lt;/span&gt;&lt;br&gt;&lt;span style=&quot;background-color: transparent; color: light-dark(rgb(0, 0, 0), rgb(255, 255, 255));&quot;&gt;Пароль: int&lt;/span&gt;" style="rounded=1;whiteSpace=wrap;html=1;align=left;" vertex="1" parent="1">
          <mxGeometry x="800" y="590" width="200" height="60" as="geometry" />
        </mxCell>
        <mxCell id="kpQuk6wI5b8qd4fek2up-45" value="" style="endArrow=none;dashed=1;html=1;rounded=0;exitX=0.5;exitY=0;exitDx=0;exitDy=0;" edge="1" parent="1" source="kpQuk6wI5b8qd4fek2up-41">
          <mxGeometry width="50" height="50" relative="1" as="geometry">
            <mxPoint x="850" y="570" as="sourcePoint" />
            <mxPoint x="900" y="520" as="targetPoint" />
          </mxGeometry>
        </mxCell>
        <mxCell id="kpQuk6wI5b8qd4fek2up-46" value="Сотрудник - потомок" style="rounded=1;whiteSpace=wrap;html=1;" vertex="1" parent="1">
          <mxGeometry x="798" y="30" width="200" height="30" as="geometry" />
        </mxCell>
        <mxCell id="kpQuk6wI5b8qd4fek2up-47" value="&lt;span style=&quot;background-color: transparent; color: light-dark(rgb(0, 0, 0), rgb(255, 255, 255));&quot;&gt;ИД: int&lt;/span&gt;&lt;br&gt;&lt;span style=&quot;background-color: transparent; color: light-dark(rgb(0, 0, 0), rgb(255, 255, 255));&quot;&gt;Логин: int&lt;/span&gt;&lt;br&gt;&lt;span style=&quot;background-color: transparent; color: light-dark(rgb(0, 0, 0), rgb(255, 255, 255));&quot;&gt;Пароль: int&lt;/span&gt;" style="rounded=1;whiteSpace=wrap;html=1;align=left;" vertex="1" parent="1">
          <mxGeometry x="798" y="60" width="200" height="60" as="geometry" />
        </mxCell>
        <mxCell id="kpQuk6wI5b8qd4fek2up-49" value="" style="endArrow=none;dashed=1;html=1;rounded=0;exitX=0.5;exitY=0;exitDx=0;exitDy=0;" edge="1" parent="1" source="kpQuk6wI5b8qd4fek2up-3">
          <mxGeometry width="50" height="50" relative="1" as="geometry">
            <mxPoint x="850" y="170" as="sourcePoint" />
            <mxPoint x="900" y="120" as="targetPoint" />
          </mxGeometry>
        </mxCell>
        <mxCell id="kpQuk6wI5b8qd4fek2up-50" value="Сотрудник - потомок" style="rounded=1;whiteSpace=wrap;html=1;" vertex="1" parent="1">
          <mxGeometry x="438" y="29" width="200" height="30" as="geometry" />
        </mxCell>
        <mxCell id="kpQuk6wI5b8qd4fek2up-51" value="&lt;span style=&quot;background-color: transparent; color: light-dark(rgb(0, 0, 0), rgb(255, 255, 255));&quot;&gt;ИД: int&lt;/span&gt;&lt;br&gt;&lt;span style=&quot;background-color: transparent; color: light-dark(rgb(0, 0, 0), rgb(255, 255, 255));&quot;&gt;Логин: int&lt;/span&gt;&lt;br&gt;&lt;span style=&quot;background-color: transparent; color: light-dark(rgb(0, 0, 0), rgb(255, 255, 255));&quot;&gt;Пароль: int&lt;/span&gt;" style="rounded=1;whiteSpace=wrap;html=1;align=left;" vertex="1" parent="1">
          <mxGeometry x="438" y="59" width="200" height="60" as="geometry" />
        </mxCell>
        <mxCell id="kpQuk6wI5b8qd4fek2up-52" value="" style="endArrow=none;dashed=1;html=1;rounded=0;exitX=0.5;exitY=0;exitDx=0;exitDy=0;" edge="1" parent="1" source="kpQuk6wI5b8qd4fek2up-2">
          <mxGeometry width="50" height="50" relative="1" as="geometry">
            <mxPoint x="490" y="170" as="sourcePoint" />
            <mxPoint x="540" y="120" as="targetPoint" />
          </mxGeometry>
        </mxCell>
      </root>
    </mxGraphModel>
  </diagram>
</mxfile>
